<svg xmlns="http://www.w3.org/2000/svg" viewBox="0 0 96.2 79.38"><defs><style>.cls-1{fill:#fff;}</style></defs><g id="Layer_2" data-name="Layer 2"><g id="Layer_1-2" data-name="Layer 1"><path class="cls-1" d="M0,70.2a40.38,40.38,0,0,0,28.76-8.26c-1.32-.18-2.37-.26-3.38-.49A19.73,19.73,0,0,1,10.73,49.19c-.34-.8-.46-1.23.76-1a17.08,17.08,0,0,0,6.87-.37C9.1,44.41,3.8,38.08,3.28,27.81a21.81,21.81,0,0,0,8.9,2.5,30.49,30.49,0,0,1-4-3.71A20.21,20.21,0,0,1,5.64,4.66c.41-.81.66-.93,1.31-.17A56.21,56.21,0,0,0,43,24.16c1,.14,1.95.16,2.92.29s1.23-.11,1.07-1.17a19.51,19.51,0,0,1,4.78-16.6A19.79,19.79,0,0,1,80.28,5.5a2,2,0,0,0,2.14.55,41.81,41.81,0,0,0,11-4.35c.33.38.07.67,0,1a20.09,20.09,0,0,1-6.92,9c-.2.15-.72.16-.5.61s.47.05.73,0a39.89,39.89,0,0,0,8.91-2.51c.18-.07.36-.23.64,0a32.55,32.55,0,0,1-7.44,8.16c-1.73,1.29-2.13,2.68-2.23,4.76-1.1,23-11.06,40.86-32,51C36.56,82.26,18.41,81,1,71.08A1.8,1.8,0,0,1,0,70.2Z"/></g></g></svg>