<svg xmlns="http://www.w3.org/2000/svg" viewBox="0 0 384.38 66"><defs><style>.cls-1{fill:#2f3392;}.cls-2{fill:#f5d951;}.cls-3{fill:#fff;}</style></defs><g id="Layer_2" data-name="Layer 2"><g id="Layer_1-2" data-name="Layer 1"><rect class="cls-1" width="384.38" height="66" rx="23.79"/><polygon class="cls-2" points="71.15 24 57.63 37.34 60.95 56.04 44.09 47.3 27.32 56.24 30.43 37.5 16.75 24.32 35.52 21.48 43.83 4.4 52.34 21.38 71.15 24"/><polygon class="cls-2" points="146.7 24 133.18 37.34 136.5 56.04 119.64 47.3 102.88 56.24 105.98 37.5 92.3 24.32 111.08 21.48 119.38 4.4 127.89 21.38 146.7 24"/><polygon class="cls-2" points="222.25 24 208.73 37.34 212.05 56.04 195.19 47.3 178.43 56.24 181.53 37.5 167.85 24.32 186.63 21.48 194.94 4.4 203.44 21.38 222.25 24"/><polygon class="cls-2" points="297.81 24 284.29 37.34 287.61 56.04 270.74 47.3 253.98 56.24 257.08 37.5 243.4 24.32 262.18 21.48 270.49 4.4 279 21.38 297.81 24"/><polygon class="cls-3" points="373.36 24 359.84 37.34 363.16 56.04 346.29 47.3 329.54 56.24 332.63 37.5 318.95 24.32 337.74 21.48 346.04 4.4 354.55 21.38 373.36 24"/></g></g></svg>