<svg xmlns="http://www.w3.org/2000/svg" viewBox="0 0 97.05 96.59"><defs><style>.cls-1{fill:#fff;}</style></defs><g id="Layer_2" data-name="Layer 2"><g id="Layer_1-2" data-name="Layer 1"><path class="cls-1" d="M40.31,48.65l-9.88,0a3.57,3.57,0,0,0-1.65.17c-.68.12-.52.66-.52,1.09q0,5.82,0,11.65c0,.43-.15,1,.53,1.09a57.86,57.86,0,0,0,7.21.16c1.44,0,2.88,0,4.32,0a5.26,5.26,0,0,1,.23,1.07q0,15.77,0,31.52c0,1-.27,1.46-1.33,1a2.18,2.18,0,0,0-1.75-.19l-.8-.09c-1.81-1-3.94-1.2-5.81-2.09-2.4-1.14-4.83-2.2-7.25-3.3a.38.38,0,0,0-.21-.07,2,2,0,0,0-.81-.92A47.33,47.33,0,0,1,8.08,75.62,44.25,44.25,0,0,1,2.5,64.24,46,46,0,0,1,.29,54.41a63,63,0,0,1,0-11.81A48,48,0,0,1,3.08,31.21c1.08-3,2.82-5.77,4.09-8.73a.41.41,0,0,0,.1-.21,56.65,56.65,0,0,0,4.66-6.14l.05-.05a1.1,1.1,0,0,0,.77-.82l0,0a1,1,0,0,0,.8-.81l0,0A2.29,2.29,0,0,0,15,13l0,0A7.49,7.49,0,0,0,16.8,11.7,49.3,49.3,0,0,1,30.35,3.46C31.44,3,32.75,3,33.61,2l.78-.14a3.41,3.41,0,0,0,2.29-.7l.8-.1a11.11,11.11,0,0,0,4-.74l.82-.05C43.83.62,45.38.13,47,0c2.56-.17,5.08.48,7.63.25l.82.06a11.34,11.34,0,0,0,4,.74l.79.1c.73.37,1.38,1,2.29.7l.79.14a2.09,2.09,0,0,0,1.29.75A41.49,41.49,0,0,1,75.25,8.12c2.26,1.51,4.37,3.24,6.55,4.88l0,0a2.26,2.26,0,0,0,1.37,1.35l0,0a1,1,0,0,0,.8.81l0,0a11.86,11.86,0,0,0,.84,1.25,55,55,0,0,1,5.78,8.08c1,1.68,1.58,3.62,2.8,5.2,0,.14,0,.27.07.41a15.33,15.33,0,0,0,1,3.64,20.12,20.12,0,0,1,1.86,6.93,49.69,49.69,0,0,1,.34,13.73,57.28,57.28,0,0,1-2.26,9.86c-.32,1-1,1.88-.92,3,0,.13,0,.27-.07.4-.74.4-.78,1.22-1.12,1.86a54.43,54.43,0,0,1-12,15.51,50.25,50.25,0,0,1-16.28,9.44c-1.4.52-3.05.44-4.22,1.57l-.53.06a2,2,0,0,0-1.62.14c-1.19.62-1.45.06-1.45-1q0-15.54,0-31.07c0-.92.3-1.22,1.21-1.21,2.46,0,4.92,0,7.38,0,3,0,3.28-.27,3.34-3.31a7.89,7.89,0,0,0-.11-1.09c0-.18,0-.36,0-.53,1.37-2.83.79-6,1.56-8.93.12-.45-.3-.63-.75-.43l-12.42-.1A3.21,3.21,0,0,1,56.27,47c0-3-.05-6-.07-9l0-.82,1.5-2.92,0-.05a11.37,11.37,0,0,1,7.16-2.11c1.44.06,2.88,0,4.32,0,.88,0,1.34-.32,1.34-1.18,0-3.39,0-6.79,0-10.18,0-.62-.16-1.34-1.07-1.38-1.94-.08-3.85-.61-5.76-.75-4.26-.31-8.54-.28-12.61,1.39a15.14,15.14,0,0,0-6.9,5.34,21.65,21.65,0,0,0-3.69,13c0,2.93,0,5.86,0,8.79A2.79,2.79,0,0,1,40.31,48.65Z"/></g></g></svg>