<svg xmlns="http://www.w3.org/2000/svg" viewBox="0 0 67.07 69.46"><defs><style>.cls-1{fill:none;}.cls-2{fill:#fff;}</style></defs><g id="Layer_2" data-name="Layer 2"><g id="Layer_1-2" data-name="Layer 1"><path class="cls-1" d="M49.19,4.93q-16.66-.06-33.32,0c-7,0-12.11,5.39-12.11,12.65q0,17.16,0,34.31c0,7.21,5.08,12.59,12,12.63,9,.06,18.08,0,27.12,0,2.53,0,5.05.07,7.57-.08A11.82,11.82,0,0,0,61.22,53.29c.19-6.17,0-12.35,0-18.52h.06c0-5.74,0-11.47,0-17.21C61.31,10.31,56.21,5,49.19,4.93ZM32.54,53.16c-9.85,0-17.79-8.23-17.79-18.43S22.69,16.3,32.53,16.3s17.8,8.24,17.81,18.43S42.37,53.16,32.54,53.16Zm19-33.85a4.12,4.12,0,0,1-4.11-4.25,4.1,4.1,0,1,1,8.2,0A4.16,4.16,0,0,1,51.55,19.31Z"/><path class="cls-2" d="M51.47,10.84a4.12,4.12,0,0,0-4,4.22,4.1,4.1,0,1,0,8.2,0A4.14,4.14,0,0,0,51.47,10.84Z"/><path class="cls-2" d="M67.06,17.72a19.47,19.47,0,0,0-.21-3.15C65.39,5.88,58.64,0,50.11,0h-33a16.85,16.85,0,0,0-2.93.2C5.71,1.7,0,8.71,0,17.6,0,23.3,0,29,0,34.71H0c0,5.73,0,11.47,0,17.21A18.07,18.07,0,0,0,.2,54.76C1.6,63.52,8.41,69.45,17,69.45H50a16.37,16.37,0,0,0,4-.4c7.91-1.93,13.08-8.69,13.08-17.32Q67.07,34.72,67.06,17.72ZM62.32,34.77h-.06c0,6.17.15,12.35,0,18.52A11.82,11.82,0,0,1,51.48,64.46c-2.52.15-5,.08-7.57.08-9,0-18.08,0-27.12,0-6.95,0-12-5.42-12-12.63q0-17.16,0-34.31C4.76,10.32,9.86,5,16.87,4.93q16.65-.06,33.32,0c7,0,12.12,5.38,12.13,12.63C62.33,23.3,62.32,29,62.32,34.77Z"/><path class="cls-2" d="M32.53,16.3c-9.84,0-17.79,8.23-17.78,18.43s7.94,18.43,17.79,18.43,17.8-8.25,17.8-18.43S42.37,16.29,32.53,16.3Zm0,31.94a13.27,13.27,0,0,1-13-13.55A13.27,13.27,0,0,1,32.57,21.21a13.25,13.25,0,0,1,13,13.55A13.24,13.24,0,0,1,32.5,48.24Z"/></g></g></svg>