<svg xmlns="http://www.w3.org/2000/svg" viewBox="0 0 477.22 84.4"><defs><style>.cls-1{fill:#1b0e36;}.cls-2{fill:#f5d951;}</style></defs><g id="Layer_2" data-name="Layer 2"><g id="Layer_1-2" data-name="Layer 1"><path class="cls-1" d="M5.91,34.84H8.72V31.3a22.53,22.53,0,0,1,1.4-8.78,8.87,8.87,0,0,1,4.75-4.75A23,23,0,0,1,24,16.28q10.31,0,10.31,5a4,4,0,0,1-1.08,2.8,3.36,3.36,0,0,1-2.54,1.17A19,19,0,0,1,28.35,25a19.58,19.58,0,0,0-2.85-.26c-2.12,0-3.49.63-4.1,1.88A12.75,12.75,0,0,0,20.5,32v2.81h2.89q6.74,0,6.73,4c0,1.93-.6,3.15-1.79,3.67a12.65,12.65,0,0,1-4.94.78H20.5v31.2a7.72,7.72,0,0,1-1.66,5.33,5.54,5.54,0,0,1-4.3,1.83,5.38,5.38,0,0,1-4.16-1.83,7.67,7.67,0,0,1-1.66-5.33V43.34H5.48a6.2,6.2,0,0,1-4.06-1.19A3.82,3.82,0,0,1,0,39.07Q0,34.84,5.91,34.84Z"/><path class="cls-1" d="M43.33,28.32a6.22,6.22,0,0,1-4.21-1.51,5.36,5.36,0,0,1-1.75-4.27,5.32,5.32,0,0,1,1.79-4.12,6,6,0,0,1,4.17-1.62,6.16,6.16,0,0,1,4.05,1.47,5.22,5.22,0,0,1,1.77,4.27,5.39,5.39,0,0,1-1.72,4.25A6,6,0,0,1,43.33,28.32Zm5.82,12.17V74.54a7.61,7.61,0,0,1-1.68,5.35A5.57,5.57,0,0,1,43.2,81.7,5.34,5.34,0,0,1,39,79.85a7.84,7.84,0,0,1-1.62-5.31V40.84A7.57,7.57,0,0,1,39,35.57,5.44,5.44,0,0,1,43.2,33.8a5.64,5.64,0,0,1,4.27,1.77A6.86,6.86,0,0,1,49.15,40.49Z"/><path class="cls-1" d="M62,34.84h1.3V27.76c0-1.9,0-3.39.15-4.47a6.58,6.58,0,0,1,.84-2.78,5.32,5.32,0,0,1,2-2,5.6,5.6,0,0,1,2.89-.76,5.83,5.83,0,0,1,4.06,1.68,5,5,0,0,1,1.53,2.74,24.52,24.52,0,0,1,.33,4.6v8h4.31A5.53,5.53,0,0,1,83.18,36a3.93,3.93,0,0,1,1.32,3,3.41,3.41,0,0,1-1.88,3.32,12.21,12.21,0,0,1-5.37,1h-2.2V65a35.18,35.18,0,0,0,.19,4.25,4.33,4.33,0,0,0,1,2.42A3.53,3.53,0,0,0,79,72.6a14.24,14.24,0,0,0,2.8-.37,15,15,0,0,1,2.76-.37A3.57,3.57,0,0,1,87.15,73a3.83,3.83,0,0,1,1.14,2.82c0,1.9-1,3.36-3.1,4.36s-5,1.51-8.94,1.51q-5.52,0-8.37-1.85a8.61,8.61,0,0,1-3.73-5.14A34.79,34.79,0,0,1,63.27,66V43.34H61.71a5.57,5.57,0,0,1-3.88-1.21,4,4,0,0,1-1.34-3.06,3.84,3.84,0,0,1,1.4-3A6.18,6.18,0,0,1,62,34.84Z"/><path class="cls-1" d="M103.31,40.32v1.42a20.64,20.64,0,0,1,6.8-6,18.12,18.12,0,0,1,8.48-1.92,17,17,0,0,1,8.33,2,12.93,12.93,0,0,1,5.48,5.74,13.57,13.57,0,0,1,1.51,4.66,48.26,48.26,0,0,1,.35,6.39V74.54a7.8,7.8,0,0,1-1.62,5.35,5.37,5.37,0,0,1-4.21,1.81,5.43,5.43,0,0,1-4.27-1.85,7.74,7.74,0,0,1-1.64-5.31V54.9q0-5.82-1.62-8.91t-6.45-3.08a9.49,9.49,0,0,0-5.74,1.88,10.74,10.74,0,0,0-3.8,5.15c-.58,1.76-.86,5-.86,9.84V74.54a7.67,7.67,0,0,1-1.66,5.37,5.58,5.58,0,0,1-4.3,1.79,5.33,5.33,0,0,1-4.18-1.85,7.74,7.74,0,0,1-1.64-5.31V40.49a7.42,7.42,0,0,1,1.46-5,5.12,5.12,0,0,1,4-1.66,5.42,5.42,0,0,1,2.8.74,5.26,5.26,0,0,1,2,2.2A7.77,7.77,0,0,1,103.31,40.32Z"/><path class="cls-1" d="M178.88,60.64h-23a15.65,15.65,0,0,0,1.62,7.08,11.17,11.17,0,0,0,4.19,4.62,11,11,0,0,0,5.76,1.55,14.11,14.11,0,0,0,3.86-.49,12.46,12.46,0,0,0,3.39-1.56,26.1,26.1,0,0,0,3-2.26q1.38-1.22,3.58-3.28a3.87,3.87,0,0,1,2.59-.78,4.24,4.24,0,0,1,2.93,1,3.57,3.57,0,0,1,1.13,2.81,7.7,7.7,0,0,1-1.25,3.73,14.9,14.9,0,0,1-3.78,4.1,21.43,21.43,0,0,1-6.34,3.26,27.47,27.47,0,0,1-8.79,1.29q-11.34,0-17.65-6.47t-6.3-17.56A29.22,29.22,0,0,1,145.35,48a21.2,21.2,0,0,1,4.53-7.66,19.66,19.66,0,0,1,7.33-4.9,26.29,26.29,0,0,1,9.67-1.7,23,23,0,0,1,11.85,2.91,19.16,19.16,0,0,1,7.4,7.53,19.79,19.79,0,0,1,2.46,9.41q0,4.44-2.55,5.76A15.83,15.83,0,0,1,178.88,60.64Zm-23-6.68h21.36q-.42-6-3.25-9.05a9.8,9.8,0,0,0-7.45-3,9.44,9.44,0,0,0-7.23,3Q156.44,48,155.83,54Z"/><path class="cls-1" d="M236.45,66.3a13.67,13.67,0,0,1-9.39,13.61,31.28,31.28,0,0,1-11.29,1.79,27.43,27.43,0,0,1-10.87-1.94,15.83,15.83,0,0,1-6.69-4.85,9.79,9.79,0,0,1-2.16-5.85,4.52,4.52,0,0,1,1.38-3.32,4.75,4.75,0,0,1,3.5-1.38,4.09,4.09,0,0,1,2.85.9,10.12,10.12,0,0,1,1.9,2.55,12.88,12.88,0,0,0,4.33,4.7,13.07,13.07,0,0,0,6.89,1.56,9.93,9.93,0,0,0,5.8-1.58,4.44,4.44,0,0,0,2.27-3.6,4.9,4.9,0,0,0-2.36-4.53,28.87,28.87,0,0,0-7.74-2.72A64.31,64.31,0,0,1,205,58.46a16.13,16.13,0,0,1-6.1-4.38,10,10,0,0,1-2.29-6.68,11.8,11.8,0,0,1,2.12-6.69,14.47,14.47,0,0,1,6.23-5,23.91,23.91,0,0,1,10-1.88,32.8,32.8,0,0,1,8.22,1,20.2,20.2,0,0,1,6.08,2.55,12.45,12.45,0,0,1,3.72,3.54,7,7,0,0,1,1.27,3.79A4.39,4.39,0,0,1,232.8,48a5.39,5.39,0,0,1-3.86,1.29,4.74,4.74,0,0,1-3.09-1,20.19,20.19,0,0,1-2.91-3.11,10.6,10.6,0,0,0-3.15-2.76,9.94,9.94,0,0,0-4.92-1,9.61,9.61,0,0,0-5.31,1.36,4,4,0,0,0-2.11,3.39,3.66,3.66,0,0,0,1.55,3,12.78,12.78,0,0,0,4.19,2q2.63.78,7.25,1.9a38.58,38.58,0,0,1,8.95,3.2,14.78,14.78,0,0,1,5.27,4.38A9.72,9.72,0,0,1,236.45,66.3Z"/><path class="cls-1" d="M284.35,66.3A13.64,13.64,0,0,1,275,79.91a31.26,31.26,0,0,1-11.28,1.79,27.45,27.45,0,0,1-10.88-1.94,15.83,15.83,0,0,1-6.69-4.85A9.78,9.78,0,0,1,244,69.06a4.52,4.52,0,0,1,1.38-3.32,4.72,4.72,0,0,1,3.49-1.38,4.09,4.09,0,0,1,2.85.9,9.88,9.88,0,0,1,1.9,2.55,12.81,12.81,0,0,0,4.34,4.7,13,13,0,0,0,6.88,1.56,9.93,9.93,0,0,0,5.8-1.58,4.44,4.44,0,0,0,2.27-3.6,4.89,4.89,0,0,0-2.35-4.53,29,29,0,0,0-7.75-2.72,63.79,63.79,0,0,1-9.9-3.18,16.17,16.17,0,0,1-6.11-4.38,10,10,0,0,1-2.29-6.68,11.8,11.8,0,0,1,2.12-6.69,14.53,14.53,0,0,1,6.23-5,23.94,23.94,0,0,1,9.95-1.88,32.8,32.8,0,0,1,8.22,1,20.38,20.38,0,0,1,6.09,2.55,12.52,12.52,0,0,1,3.71,3.54,6.89,6.89,0,0,1,1.27,3.79A4.39,4.39,0,0,1,280.7,48a5.37,5.37,0,0,1-3.86,1.29,4.74,4.74,0,0,1-3.09-1,20.19,20.19,0,0,1-2.91-3.11,10.6,10.6,0,0,0-3.15-2.76,9.94,9.94,0,0,0-4.92-1,9.61,9.61,0,0,0-5.31,1.36,4,4,0,0,0-2.11,3.39,3.68,3.68,0,0,0,1.55,3,12.78,12.78,0,0,0,4.19,2q2.63.78,7.25,1.9a38.41,38.41,0,0,1,9,3.2,14.78,14.78,0,0,1,5.27,4.38A9.72,9.72,0,0,1,284.35,66.3Z"/><path class="cls-2" d="M326.46,73.3v-10H299.37q-5.13,0-7.7-2.32a8.13,8.13,0,0,1-2.56-6.32,6.14,6.14,0,0,1,.38-2.07,10.83,10.83,0,0,1,1.13-2.22c.51-.77,1-1.52,1.57-2.24l2-2.64L322.79,7.18a42.78,42.78,0,0,1,4.62-5.48A6.11,6.11,0,0,1,331.75,0Q340,0,340,9.39V51.17h2.32a16.46,16.46,0,0,1,6.66,1.13c1.68.76,2.51,2.41,2.51,5a5.15,5.15,0,0,1-2.05,4.56q-2.06,1.43-6.15,1.43H340v10c0,2.77-.62,4.83-1.84,6.18a6.89,6.89,0,0,1-9.8,0Q326.46,77.35,326.46,73.3ZM303.25,51.17h23.21V19.81Z"/><path class="cls-2" d="M405.93,74.27l-3.72-9.76H370.6l-3.72,10a34.75,34.75,0,0,1-3.71,7.88q-1.53,2-5,2a7.38,7.38,0,0,1-5.25-2.17,6.67,6.67,0,0,1-2.28-4.94,11.17,11.17,0,0,1,.53-3.29c.35-1.13.94-2.7,1.75-4.72l19.89-50.5,2.05-5.22a26.24,26.24,0,0,1,2.54-5.07,10.35,10.35,0,0,1,3.56-3.26,12.55,12.55,0,0,1,10.92,0,10.51,10.51,0,0,1,3.56,3.21,22.53,22.53,0,0,1,2.28,4.22c.62,1.5,1.4,3.51,2.36,6l20.32,50.18c1.59,3.82,2.38,6.59,2.38,8.33a6.92,6.92,0,0,1-2.25,5,7.42,7.42,0,0,1-5.44,2.25,7,7,0,0,1-3.18-.66,6.35,6.35,0,0,1-2.23-1.81,16.46,16.46,0,0,1-1.94-3.5C407,76.86,406.42,75.47,405.93,74.27ZM374.74,52.68H398L386.25,20.59Z"/><path class="cls-2" d="M433.3,75.6V12.79c0-2.9.64-5.09,1.94-6.58A6.55,6.55,0,0,1,440.46,4a6.9,6.9,0,0,1,5.31,2.2q2,2.21,2,6.61V75.6q0,4.4-2,6.6a6.86,6.86,0,0,1-5.28,2.2,6.53,6.53,0,0,1-5.17-2.28C434,80.6,433.3,78.42,433.3,75.6Z"/><path class="cls-2" d="M462.74,75.6V12.79q0-4.35,1.94-6.58A6.55,6.55,0,0,1,469.9,4a6.9,6.9,0,0,1,5.31,2.2q2,2.21,2,6.61V75.6q0,4.4-2,6.6a6.86,6.86,0,0,1-5.28,2.2,6.54,6.54,0,0,1-5.17-2.28C463.4,80.6,462.74,78.42,462.74,75.6Z"/></g></g></svg>