<svg xmlns="http://www.w3.org/2000/svg" viewBox="0 0 393.33 452.08"><defs><style>.cls-1{fill:#2f3392;}.cls-2{fill:#f5d951;}.cls-3{fill:#fff;}</style></defs><g id="Layer_2" data-name="Layer 2"><g id="Layer_1-2" data-name="Layer 1"><rect class="cls-1" x="8.95" width="384.38" height="66" rx="23.79"/><polygon class="cls-2" points="80.1 24 66.58 37.34 69.9 56.04 53.03 47.3 36.27 56.24 39.37 37.5 25.69 24.32 44.47 21.48 52.78 4.4 61.29 21.38 80.1 24"/><polygon class="cls-2" points="155.65 24 142.13 37.34 145.45 56.04 128.59 47.3 111.83 56.24 114.93 37.5 101.25 24.32 120.03 21.48 128.33 4.4 136.84 21.38 155.65 24"/><polygon class="cls-2" points="231.2 24 217.68 37.34 221 56.04 204.14 47.3 187.38 56.24 190.48 37.5 176.8 24.32 195.58 21.48 203.88 4.4 212.39 21.38 231.2 24"/><polygon class="cls-2" points="306.76 24 293.23 37.34 296.56 56.04 279.69 47.3 262.93 56.24 266.03 37.5 252.35 24.32 271.13 21.48 279.44 4.4 287.94 21.38 306.76 24"/><polygon class="cls-2" points="382.31 24 368.79 37.34 372.11 56.04 355.24 47.3 338.48 56.24 341.58 37.5 327.9 24.32 346.68 21.48 354.99 4.4 363.5 21.38 382.31 24"/><rect class="cls-1" x="4.19" y="92.12" width="384.38" height="66" rx="23.79"/><polygon class="cls-2" points="75.34 116.12 61.81 129.46 65.14 148.16 48.27 139.43 31.51 148.36 34.61 129.62 20.93 116.45 39.71 113.6 48.02 96.52 56.52 113.5 75.34 116.12"/><polygon class="cls-2" points="150.89 116.12 137.37 129.46 140.69 148.16 123.83 139.43 107.06 148.36 110.17 129.62 96.48 116.45 115.27 113.6 123.57 96.52 132.08 113.5 150.89 116.12"/><polygon class="cls-2" points="226.44 116.12 212.92 129.46 216.24 148.16 199.38 139.43 182.62 148.36 185.72 129.62 172.04 116.45 190.82 113.6 199.12 96.52 207.63 113.5 226.44 116.12"/><polygon class="cls-2" points="302 116.12 288.47 129.46 291.79 148.16 274.93 139.43 258.17 148.36 261.27 129.62 247.59 116.45 266.37 113.6 274.68 96.52 283.18 113.5 302 116.12"/><polygon class="cls-3" points="377.55 116.12 364.02 129.46 367.35 148.16 350.48 139.43 333.72 148.36 336.82 129.62 323.14 116.45 341.92 113.6 350.23 96.52 358.74 113.5 377.55 116.12"/><rect class="cls-1" x="4.19" y="288.09" width="384.38" height="66" rx="23.79"/><polygon class="cls-2" points="75.34 312.1 61.81 325.43 65.14 344.13 48.27 335.4 31.51 344.33 34.61 325.6 20.93 312.42 39.71 309.57 48.02 292.49 56.52 309.48 75.34 312.1"/><polygon class="cls-2" points="150.89 312.1 137.37 325.43 140.69 344.13 123.83 335.4 107.06 344.33 110.17 325.6 96.48 312.42 115.27 309.57 123.57 292.49 132.08 309.48 150.89 312.1"/><polygon class="cls-3" points="226.44 312.1 212.92 325.43 216.24 344.13 199.38 335.4 182.62 344.33 185.72 325.6 172.04 312.42 190.82 309.57 199.12 292.49 207.63 309.48 226.44 312.1"/><polygon class="cls-3" points="302 312.1 288.47 325.43 291.79 344.13 274.93 335.4 258.17 344.33 261.27 325.6 247.59 312.42 266.37 309.57 274.68 292.49 283.18 309.48 302 312.1"/><polygon class="cls-3" points="377.55 312.1 364.02 325.43 367.35 344.13 350.48 335.4 333.72 344.33 336.82 325.6 323.14 312.42 341.92 309.57 350.23 292.49 358.74 309.48 377.55 312.1"/><rect class="cls-1" y="386.08" width="384.38" height="66" rx="23.79"/><polygon class="cls-2" points="71.15 410.08 57.63 423.42 60.95 442.12 44.09 433.38 27.32 442.32 30.43 423.58 16.75 410.4 35.52 407.56 43.83 390.48 52.34 407.46 71.15 410.08"/><polygon class="cls-3" points="146.7 410.08 133.18 423.42 136.5 442.12 119.64 433.38 102.88 442.32 105.98 423.58 92.3 410.4 111.08 407.56 119.38 390.48 127.89 407.46 146.7 410.08"/><polygon class="cls-3" points="222.25 410.08 208.73 423.42 212.05 442.12 195.19 433.38 178.43 442.32 181.53 423.58 167.85 410.4 186.63 407.56 194.94 390.48 203.44 407.46 222.25 410.08"/><polygon class="cls-3" points="297.81 410.08 284.29 423.42 287.61 442.12 270.74 433.38 253.98 442.32 257.08 423.58 243.4 410.4 262.18 407.56 270.49 390.48 279 407.46 297.81 410.08"/><polygon class="cls-3" points="373.36 410.08 359.84 423.42 363.16 442.12 346.29 433.38 329.54 442.32 332.63 423.58 318.95 410.4 337.74 407.56 346.04 390.48 354.55 407.46 373.36 410.08"/><rect class="cls-1" x="4.19" y="187.6" width="384.38" height="66" rx="23.79"/><polygon class="cls-2" points="75.34 211.6 61.81 224.94 65.14 243.64 48.27 234.9 31.51 243.84 34.61 225.1 20.93 211.92 39.71 209.08 48.02 191.99 56.52 208.98 75.34 211.6"/><polygon class="cls-2" points="150.89 211.6 137.37 224.94 140.69 243.64 123.83 234.9 107.06 243.84 110.17 225.1 96.48 211.92 115.27 209.08 123.57 191.99 132.08 208.98 150.89 211.6"/><polygon class="cls-2" points="226.44 211.6 212.92 224.94 216.24 243.64 199.38 234.9 182.62 243.84 185.72 225.1 172.04 211.92 190.82 209.08 199.12 191.99 207.63 208.98 226.44 211.6"/><polygon class="cls-3" points="302 211.6 288.47 224.94 291.79 243.64 274.93 234.9 258.17 243.84 261.27 225.1 247.59 211.92 266.37 209.08 274.68 191.99 283.18 208.98 302 211.6"/><polygon class="cls-3" points="377.55 211.6 364.02 224.94 367.35 243.64 350.48 234.9 333.72 243.84 336.82 225.1 323.14 211.92 341.92 209.08 350.23 191.99 358.74 208.98 377.55 211.6"/></g></g></svg>